g default
v 2259.557 230.4 281.5998
v 2259.557 230.4 230.3998
v 2259.557 281.6 230.3998
v 2259.557 281.6 281.5998
v 2259.557 230.4 230.3998
v 2310.757 230.4 230.3998
v 2310.757 281.6 230.3998
v 2259.557 281.6 230.3998
v 2310.757 230.4 230.3998
v 2310.757 230.4 281.5998
v 2310.757 281.6 281.5998
v 2310.757 281.6 230.3998
v 2259.557 281.6 281.5998
v 2310.757 281.6 281.5998
v 2310.757 230.4 281.5998
v 2259.557 230.4 281.5998
v 2259.557 281.6 281.5998
v 2259.557 281.6 230.3998
v 2310.757 281.6 230.3998
v 2310.757 281.6 281.5998
v 2259.557 230.4 281.5998
v 2310.757 230.4 281.5998
v 2310.757 230.4 230.3998
v 2259.557 230.4 230.3998
v 1171.25 511.9999 279.9102
v 770.3802 511.9998 -384.0255
v 1274.521 511.9999 198.4766
v 943.9226 511.9998 -497.075
v 687.7692 511.9998 -321.6127
v 608.1531 511.9998 -255.3599
v 0 512 819.1995
v 377.4204 511.9998 -474.9054
v 1171.25 0.000183 279.9103
v 1274.521 0.000183 198.4767
v 1274.521 511.9999 198.4766
v 943.9226 511.9998 -497.075
v 1384.933 511.9999 126.9503
v 1127.423 511.9998 -593.9709
v 1501.593 511.9999 65.58708
v 1319.577 511.9998 -674.2269
v 1623.73 511.9998 14.74553
v 1519.026 511.9997 -737.382
v 1750.425 511.9998 -25.29286
v 1724.415 511.9997 -782.9244
v 1880.908 511.9998 -54.19524
v 1934.437 511.9997 -810.3675
v 2014.284 511.9998 -71.70561
v 2040.754 511.9997 -817.1516
v 2149.708 511.9998 -77.46562
v 2147.736 511.9997 -819.1995
v 2254.693 511.9997 -816.5372
v 2285.157 511.9998 -71.27043
v 2360.958 511.9997 -809.1387
v 2418.456 511.9998 -53.37605
v 2570.776 511.9997 -780.4924
v 2548.811 511.9998 -24.03847
v 2775.857 511.9997 -733.7723
v 2675.377 511.9998 16.38393
v 2974.897 511.9998 -669.4908
v 2797.31 511.9999 67.63512
v 3166.513 511.9998 -588.1085
v 2913.765 511.9999 129.3311
v 3349.374 511.9998 -490.163
v 3023.896 511.9999 201.2158
v 3522.148 511.9998 -376.1407
v 3126.885 511.9999 282.9822
v 3604.324 511.9998 -313.2415
v 3683.505 511.9998 -246.5279
v 4300.797 512 819.1995
v 2895.384 511.9999 503.2444
v 3923.377 511.9998 -474.9054
v 2675.377 0.000137 16.38403
v 2797.31 0.000153 67.63519
v 2974.897 3.1E-05 -669.4908
v 2775.857 0 -733.7723
v 2548.811 0.000137 -24.03835
v 2570.776 0 -780.4924
v 2418.456 0.000137 -53.37593
v 2360.958 0 -809.1387
v 2285.157 0.000137 -71.27031
v 2254.693 0 -816.5372
v 2149.708 0.000137 -77.46553
v 2147.736 0 -819.1995
v 2040.754 0 -817.1516
v 2014.284 0.000137 -71.70552
v 1934.437 0 -810.3675
v 1880.908 0.000137 -54.19511
v 1724.415 0 -782.9244
v 1750.425 0.000137 -25.29274
v 1519.026 0 -737.382
v 1623.73 0.000137 14.74562
v 1319.577 3.1E-05 -674.2269
v 2360.958 511.9997 -809.1387
v 2254.693 511.9997 -816.5372
v 2570.776 511.9997 -780.4924
v 2775.857 511.9997 -733.7723
v 2974.897 511.9998 -669.4908
v 3166.513 511.9998 -588.1085
v 3166.513 3.1E-05 -588.1085
v 3349.374 6.1E-05 -490.1629
v 3349.374 511.9998 -490.163
v 3522.148 7.6E-05 -376.1406
v 3522.148 511.9998 -376.1407
v 2913.765 0.000153 129.3311
v 3023.896 0.000183 201.2159
v 3126.885 0.000183 282.9823
v 3604.324 7.6E-05 -313.2414
v 3683.505 0.000107 -246.5278
v 4300.797 0.000275 819.1995
v 3604.324 511.9998 -313.2415
v 3683.505 511.9998 -246.5279
v 2895.384 0.000229 503.2445
v 4300.797 512 819.1995
v 3923.377 6.1E-05 -474.9053
v 3923.377 511.9998 -474.9054
v 2895.384 511.9999 503.2444
v 943.9226 6.1E-05 -497.0749
v 1384.933 0.000153 126.9504
v 1127.423 3.1E-05 -593.9709
v 1501.593 0.000153 65.58717
v 943.9226 511.9998 -497.075
v 770.3802 511.9998 -384.0255
v 770.3802 7.6E-05 -384.0253
v 687.7692 511.9998 -321.6127
v 687.7692 7.6E-05 -321.6126
v 1127.423 511.9998 -593.9709
v 1319.577 511.9998 -674.2269
v 608.1531 0.000107 -255.3598
v 608.1531 511.9998 -255.3599
v 1519.026 511.9997 -737.382
v 1724.415 511.9997 -782.9244
v 1934.437 511.9997 -810.3675
v 2040.754 511.9997 -817.1516
v 2147.736 511.9997 -819.1995
v 0 0.000275 819.1995
v 1171.25 0.000183 279.9103
v 1274.521 0.000183 198.4767
v 1405.926 0.000229 503.6029
v 1405.926 511.9999 503.6028
v 0 512 819.1995
v 377.4204 511.9998 -474.9054
v 377.4204 6.1E-05 -474.9053
v 3683.505 511.9998 -246.5279
v 3923.377 6.1E-05 -474.9053
v 3923.377 511.9998 -474.9054
v 3683.505 0.000107 -246.5278
v 4300.797 0.000275 819.1995
v 1405.926 511.9999 503.6028
v 0 512 819.1995
v 1171.25 511.9999 279.9102
v 1171.25 0.000183 279.9103
v 1405.926 0.000229 503.6029
v 1384.933 0.000153 126.9504
v 1384.933 511.9999 126.9503
v 1501.593 511.9999 65.58708
v 1274.521 0.000183 198.4767
v 1274.521 511.9999 198.4766
v 1501.593 0.000153 65.58717
v 1623.73 511.9998 14.74553
v 1623.73 0.000137 14.74562
v 1750.425 0.000137 -25.29274
v 1750.425 511.9998 -25.29286
v 1880.908 511.9998 -54.19524
v 1880.908 0.000137 -54.19511
v 2014.284 511.9998 -71.70561
v 2014.284 0.000137 -71.70552
v 2149.708 511.9998 -77.46562
v 2149.708 0.000137 -77.46553
v 2285.157 511.9998 -71.27043
v 2285.157 0.000137 -71.27031
v 2418.456 511.9998 -53.37605
v 2418.456 0.000137 -53.37593
v 2548.811 511.9998 -24.03847
v 2548.811 0.000137 -24.03835
v 2675.377 511.9998 16.38393
v 2675.377 0.000137 16.38403
v 2797.31 511.9999 67.63512
v 2797.31 0.000153 67.63519
v 2913.765 511.9999 129.3311
v 2913.765 0.000153 129.3311
v 3023.896 511.9999 201.2158
v 3023.896 0.000183 201.2159
v 3126.885 0.000183 282.9823
v 3126.885 511.9999 282.9822
v 377.4204 511.9998 -474.9054
v 608.1531 0.000107 -255.3598
v 608.1531 511.9998 -255.3599
v 377.4204 6.1E-05 -474.9053
v 3126.885 0.000183 282.9823
v 3126.885 511.9999 282.9822
v 2895.384 0.000229 503.2445
v 2895.384 511.9999 503.2444
v 377.4204 6.1E-05 -474.9053
v 0 0.000275 819.1995
v 608.1531 0.000107 -255.3598
vt 0.301673 0.025191
vt 0.479155 0.238505
vt 0.552669 0.326865
vt 0.479155 0.238505
vt 0.479155 0.238505
vt 0.265839 0.415988
vt 0.257786 0.503817
vt 0.552669 0.326865
vt 0.265839 0.415988
vt 0.088357 0.202674
vt 0 0.276189
vt 0.257786 0.503817
vt 0.253505 0.887138
vt 0.366369 0.633631
vt 0.413118 0.528627
vt 0 0.774274
vt 0.253505 0.887138
vt 0.50701 1
vt 0.619874 0.746495
vt 0.366369 0.633631
vt 0.301673 0.025191
vt 0.088357 0.202674
vt 0.265839 0.415988
vt 0.479155 0.238505
vt 0.05746 0.128193
vt 0.204946 0.138802
vt 0.062351 0.103601
vt 0.209124 0.099535
vt 0.201497 0.158238
vt 0.197137 0.177498
vt 0.067263 0.373839
vt 0.254407 0.197683
vt 0 0.207106
vt 0.07712 0.029344
vt 0.082803 0.414592
vt 0 0.535846
vt 0.101489 0.431324
vt 0.031703 0.559514
vt 0.121651 0.446326
vt 0.065528 0.580303
vt 0.143156 0.459508
vt 0.101231 0.598086
vt 0.165838 0.47079
vt 0.138574 0.612728
vt 0.189562 0.480085
vt 0.177323 0.624097
vt 0.214168 0.487321
vt 0.197148 0.628513
vt 0.239506 0.492404
vt 0.217239 0.632057
vt 0.237463 0.634713
vt 0.265202 0.495235
vt 0.257698 0.636456
vt 0.290838 0.495799
vt 0.298064 0.637254
vt 0.316257 0.494122
vt 0.338072 0.634508
vt 0.34129 0.490244
vt 0.37746 0.628276
vt 0.36577 0.48419
vt 0.415955 0.618603
vt 0.389526 0.476007
vt 0.45329 0.605552
vt 0.412393 0.465717
vt 0.489199 0.589175
vt 0.434205 0.453356
vt 0.506534 0.579754
vt 0.523418 0.569525
vt 0.67115 0.387009
vt 0.397102 0.405034
vt 0.561858 0.619623
vt 0.320957 0.812848
vt 0.297691 0.80312
vt 0.264095 0.943721
vt 0.302066 0.955906
vt 0.345102 0.82051
vt 0.341182 0.964741
vt 0.369965 0.826057
vt 0.381195 0.970128
vt 0.395386 0.829422
vt 0.401458 0.971501
vt 0.421213 0.830555
vt 0.421851 0.971971
vt 0.442247 0.971542
vt 0.44703 0.829409
vt 0.462515 0.970211
vt 0.472453 0.826023
vt 0.502547 0.964905
vt 0.49732 0.820466
vt 0.54169 0.956149
vt 0.521461 0.812788
vt 0.579694 0.944037
vt 0.383518 0.999919
vt 0.407629 1
vt 0.335009 0.994487
vt 0.288378 0.982081
vt 0.24558 0.964298
vt 0.206942 0.94305
vt 0.227533 0.928273
vt 0.192634 0.909663
vt 0.171869 0.919454
vt 0.159654 0.887986
vt 0.139749 0.893847
vt 0.275467 0.791399
vt 0.254444 0.777732
vt 0.23478 0.762179
vt 0.143964 0.876023
vt 0.128844 0.863331
vt 0.010775 0.660362
vt 0.124687 0.880284
vt 0.110262 0.866204
vt 0.278839 0.720103
vt 0 0.655391
vt 0.083192 0.906958
vt 0.068195 0.911189
vt 0.258809 0.696815
vt 0.651252 0.910129
vt 0.566949 0.791311
vt 0.616301 0.928668
vt 0.544729 0.803051
vt 0.666394 0.914655
vt 0.698557 0.891347
vt 0.684299 0.888514
vt 0.713843 0.8787
vt 0.700027 0.876585
vt 0.632265 0.935318
vt 0.596294 0.953375
vt 0.715183 0.863925
vt 0.728561 0.865393
vt 0.558496 0.96888
vt 0.518702 0.981823
vt 0.476486 0.991973
vt 0.454293 0.995788
vt 0.431299 0.998539
vt 0.830751 0.658838
vt 0.607635 0.762072
vt 0.587975 0.777635
vt 0.562814 0.719507
vt 0.580894 0.709517
vt 0.839799 0.655555
vt 0.770827 0.90807
vt 0.759252 0.905702
vt 0.883999 0.748965
vt 0.9942 0.786006
vt 0.933401 0.709636
vt 0.944797 0.825336
vt 0.924583 1
vt 0.991908 0.668987
vt 0.931141 0.401072
vt 0.934178 0.646894
vt 0.883999 0.627691
vt 0.897645 0.694353
vt 0.622684 0.366296
vt 0.620476 0.268704
vt 0.595351 0.269273
vt 0.64776 0.365728
vt 0.645454 0.268115
vt 0.597559 0.366864
vt 0.570225 0.269821
vt 0.572393 0.367434
vt 0.547216 0.368003
vt 0.545194 0.270261
vt 0.520262 0.270519
vt 0.522039 0.368573
vt 0.495422 0.270559
vt 0.49689 0.369142
vt 0.470679 0.270365
vt 0.471794 0.36971
vt 0.44625 0.269931
vt 0.446984 0.370271
vt 0.422378 0.269258
vt 0.42271 0.37082
vt 0.399072 0.268339
vt 0.39898 0.371357
vt 0.376355 0.267164
vt 0.375814 0.371882
vt 0.354261 0.265711
vt 0.353236 0.372392
vt 0.332825 0.263959
vt 0.331276 0.372889
vt 0.312091 0.26187
vt 0.309964 0.373372
vt 0.289325 0.373839
vt 0.292097 0.259401
vt 0.254407 0.197683
vt 0.22474 0.187242
vt 0.197137 0.177498
vt 0.274858 0.204899
vt 0.804089 0.576331
vt 0.706473 0.576331
vt 0.804089 0.637254
vt 0.706473 0.637254
vt 0.883999 0.129774
vt 0.908255 0.385636
vt 0.940339 0.152425
vn -1 0 0
vn -1 0 0
vn -1 0 0
vn -1 0 0
vn 0 0 -1
vn 0 0 -1
vn 0 0 -1
vn 0 0 -1
vn 1 0 0
vn 1 0 0
vn 1 0 0
vn 1 0 0
vn 0 0 1
vn 0 0 1
vn 0 0 1
vn 0 0 1
vn 0 1 0
vn 0 1 0
vn 0 1 0
vn 0 1 0
vn 0 -1 0
vn 0 -1 0
vn 0 -1 0
vn 0 -1 0
vn 0.390012 0.9206279 0.018301
vn -0.4107399 0.6993689 -0.5849579
vn 0.4053111 0.7177202 0.5662161
vn -0.36348 0.6969609 -0.6181649
vn -0.4426239 0.7018369 -0.5581299
vn 0.0151 0.8906147 -0.4545079
vn -0.6063161 0.5553151 0.5692151
vn -0.216211 0.556329 -0.8023409
vn 0.390012 -0.9206279 0.018301
vn 0.4053111 -0.7177202 0.5662161
vn 0.4053111 0.7177202 0.5662161
vn -0.36348 0.6969609 -0.6181649
vn 0.351911 0.717422 0.601219
vn -0.3058879 0.6970737 -0.6484757
vn 0.2963231 0.7173563 0.6305493
vn -0.246605 0.6972131 -0.673112
vn 0.2390949 0.7171837 0.6545847
vn -0.1859071 0.6973253 -0.6922253
vn 0.180498 0.7171932 0.6730932
vn -0.124105 0.697327 -0.705927
vn 0.120802 0.717111 0.68641
vn -0.06909896 0.6996936 -0.7110937
vn 0.06020297 0.7171326 0.6943316
vn -0.02950101 0.7021332 -0.7114342
vn -0.0011 0.7171831 0.696884
vn 0.002000001 0.7021884 -0.7119884
vn 0.03359998 0.7020925 -0.7112925
vn -0.06230298 0.7171398 0.6941388
vn 0.073204 0.699738 -0.710639
vn -0.123003 0.7171149 0.6860149
vn 0.1282019 0.6973107 -0.7052107
vn -0.1827 0.7170991 0.6725991
vn 0.1898959 0.6972837 -0.6911837
vn -0.2412151 0.7172441 0.6537401
vn 0.250498 0.697193 -0.6716939
vn -0.2984061 0.7173152 0.6296132
vn 0.309707 0.697116 -0.646615
vn -0.353803 0.717507 0.600006
vn 0.3672071 0.6969132 -0.6160122
vn -0.4072201 0.7177341 0.5648271
vn 0.4143301 0.6993511 -0.582442
vn -0.3907188 0.9203436 0.01750099
vn 0.4460937 0.7018906 -0.5552927
vn -0.0137 0.8914042 -0.4530021
vn 0.6062189 0.5553169 0.5693169
vn -0.8033501 0.5525341 0.222114
vn 0.2160981 0.5562961 -0.8023942
vn -0.2412151 -0.7172441 0.6537401
vn -0.2984061 -0.7173152 0.6296132
vn 0.250498 -0.697193 -0.6716939
vn 0.1898959 -0.6972837 -0.6911837
vn -0.1827 -0.7170991 0.6725991
vn 0.1282019 -0.6973107 -0.7052107
vn -0.123003 -0.7171149 0.6860149
vn 0.073204 -0.699738 -0.710639
vn -0.06230298 -0.7171398 0.6941388
vn 0.03359998 -0.7020925 -0.7112925
vn -0.0011 -0.7171831 0.696884
vn 0.002000001 -0.7021884 -0.7119884
vn -0.02950101 -0.7021332 -0.7114342
vn 0.06020297 -0.7171326 0.6943316
vn -0.06909896 -0.6996936 -0.7110937
vn 0.120802 -0.717111 0.68641
vn -0.124105 -0.697327 -0.705927
vn 0.180498 -0.7171932 0.6730932
vn -0.1859071 -0.6973253 -0.6922253
vn 0.2390949 -0.7171837 0.6545847
vn -0.246605 -0.6972131 -0.673112
vn 0.073204 0.699738 -0.710639
vn 0.03359998 0.7020925 -0.7112925
vn 0.1282019 0.6973107 -0.7052107
vn 0.1898959 0.6972837 -0.6911837
vn 0.250498 0.697193 -0.6716939
vn 0.309707 0.697116 -0.646615
vn 0.309707 -0.697116 -0.646615
vn 0.3672071 -0.6969132 -0.6160122
vn 0.3672071 0.6969132 -0.6160122
vn 0.4143301 -0.6993511 -0.582442
vn 0.4143301 0.6993511 -0.582442
vn -0.353803 -0.717507 0.600006
vn -0.4072201 -0.7177341 0.5648271
vn -0.3907188 -0.9203436 0.01750099
vn 0.4460937 -0.7018906 -0.5552927
vn -0.0137 -0.8914042 -0.4530021
vn 0.6062189 -0.5553169 0.5693169
vn 0.4460937 0.7018906 -0.5552927
vn -0.0137 0.8914042 -0.4530021
vn -0.8033501 -0.5525341 0.222114
vn 0.6062189 0.5553169 0.5693169
vn 0.2160981 -0.5562961 -0.8023942
vn 0.2160981 0.5562961 -0.8023942
vn -0.8033501 0.5525341 0.222114
vn -0.36348 -0.6969609 -0.6181649
vn 0.351911 -0.717422 0.601219
vn -0.3058879 -0.6970737 -0.6484757
vn 0.2963231 -0.7173563 0.6305493
vn -0.36348 0.6969609 -0.6181649
vn -0.4107399 0.6993689 -0.5849579
vn -0.4107399 -0.6993689 -0.5849579
vn -0.4426239 0.7018369 -0.5581299
vn -0.4426239 -0.7018369 -0.5581299
vn -0.3058879 0.6970737 -0.6484757
vn -0.246605 0.6972131 -0.673112
vn 0.0151 -0.8906147 -0.4545079
vn 0.0151 0.8906147 -0.4545079
vn -0.1859071 0.6973253 -0.6922253
vn -0.124105 0.697327 -0.705927
vn -0.06909896 0.6996936 -0.7110937
vn -0.02950101 0.7021332 -0.7114342
vn 0.002000001 0.7021884 -0.7119884
vn -0.6063161 -0.5553151 0.5692151
vn 0.390012 -0.9206279 0.018301
vn 0.4053111 -0.7177202 0.5662161
vn 0.8032429 -0.5525299 0.222512
vn 0.8032429 0.5525299 0.222512
vn -0.6063161 0.5553151 0.5692151
vn -0.216211 0.556329 -0.8023409
vn -0.216211 -0.556329 -0.8023409
vn -0.0137 0.8914042 -0.4530021
vn 0.2160981 -0.5562961 -0.8023942
vn 0.2160981 0.5562961 -0.8023942
vn -0.0137 -0.8914042 -0.4530021
vn 0.6062189 -0.5553169 0.5693169
vn 0.8032429 0.5525299 0.222512
vn -0.6063161 0.5553151 0.5692151
vn 0.390012 0.9206279 0.018301
vn 0.390012 -0.9206279 0.018301
vn 0.8032429 -0.5525299 0.222512
vn 0.351911 -0.717422 0.601219
vn 0.351911 0.717422 0.601219
vn 0.2963231 0.7173563 0.6305493
vn 0.4053111 -0.7177202 0.5662161
vn 0.4053111 0.7177202 0.5662161
vn 0.2963231 -0.7173563 0.6305493
vn 0.2390949 0.7171837 0.6545847
vn 0.2390949 -0.7171837 0.6545847
vn 0.180498 -0.7171932 0.6730932
vn 0.180498 0.7171932 0.6730932
vn 0.120802 0.717111 0.68641
vn 0.120802 -0.717111 0.68641
vn 0.06020297 0.7171326 0.6943316
vn 0.06020297 -0.7171326 0.6943316
vn -0.0011 0.7171831 0.696884
vn -0.0011 -0.7171831 0.696884
vn -0.06230298 0.7171398 0.6941388
vn -0.06230298 -0.7171398 0.6941388
vn -0.123003 0.7171149 0.6860149
vn -0.123003 -0.7171149 0.6860149
vn -0.1827 0.7170991 0.6725991
vn -0.1827 -0.7170991 0.6725991
vn -0.2412151 0.7172441 0.6537401
vn -0.2412151 -0.7172441 0.6537401
vn -0.2984061 0.7173152 0.6296132
vn -0.2984061 -0.7173152 0.6296132
vn -0.353803 0.717507 0.600006
vn -0.353803 -0.717507 0.600006
vn -0.4072201 0.7177341 0.5648271
vn -0.4072201 -0.7177341 0.5648271
vn -0.3907188 -0.9203436 0.01750099
vn -0.3907188 0.9203436 0.01750099
vn -0.216211 0.556329 -0.8023409
vn 0.0151 -0.8906147 -0.4545079
vn 0.0151 0.8906147 -0.4545079
vn -0.216211 -0.556329 -0.8023409
vn -0.3907188 -0.9203436 0.01750099
vn -0.3907188 0.9203436 0.01750099
vn -0.8033501 -0.5525341 0.222114
vn -0.8033501 0.5525341 0.222114
vn -0.216211 -0.556329 -0.8023409
vn -0.6063161 -0.5553151 0.5692151
vn 0.0151 -0.8906147 -0.4545079
g default_0
f 3/3/3 2/2/2 1/1/1
f 4/4/4 3/3/3 1/1/1
f 7/7/7 6/6/6 5/5/5
f 8/8/8 7/7/7 5/5/5
f 11/11/11 10/10/10 9/9/9
f 12/12/12 11/11/11 9/9/9
f 15/15/15 14/14/14 13/13/13
f 16/16/16 15/15/15 13/13/13
f 19/19/19 18/18/18 17/17/17
f 20/20/20 19/19/19 17/17/17
f 23/23/23 22/22/22 21/21/21
f 24/24/24 23/23/23 21/21/21
f 27/27/27 26/26/26 25/25/25
f 26/26/26 27/27/27 28/28/28
f 25/25/25 26/26/26 29/29/29
f 30/30/30 25/25/25 29/29/29
f 31/31/31 25/25/25 30/30/30
f 31/31/31 30/30/30 32/32/32
f 27/27/27 25/25/25 33/33/33
f 34/34/34 27/27/27 33/33/33
f 37/37/37 36/36/36 35/35/35
f 36/36/36 37/37/37 38/38/38
f 39/39/39 38/38/38 37/37/37
f 38/38/38 39/39/39 40/40/40
f 40/40/40 39/39/39 41/41/41
f 41/41/41 42/42/42 40/40/40
f 42/42/42 41/41/41 43/43/43
f 43/43/43 44/44/44 42/42/42
f 45/45/45 44/44/44 43/43/43
f 45/45/45 46/46/46 44/44/44
f 47/47/47 46/46/46 45/45/45
f 46/46/46 47/47/47 48/48/48
f 49/49/49 48/48/48 47/47/47
f 48/48/48 49/49/49 50/50/50
f 50/50/50 49/49/49 51/51/51
f 49/49/49 52/52/52 51/51/51
f 52/52/52 53/53/53 51/51/51
f 54/54/54 53/53/53 52/52/52
f 53/53/53 54/54/54 55/55/55
f 56/56/56 55/55/55 54/54/54
f 55/55/55 56/56/56 57/57/57
f 58/58/58 57/57/57 56/56/56
f 57/57/57 58/58/58 59/59/59
f 60/60/60 59/59/59 58/58/58
f 59/59/59 60/60/60 61/61/61
f 62/62/62 61/61/61 60/60/60
f 62/62/62 63/63/63 61/61/61
f 63/63/63 62/62/62 64/64/64
f 64/64/64 65/65/65 63/63/63
f 65/65/65 64/64/64 66/66/66
f 66/66/66 67/67/67 65/65/65
f 66/66/66 68/68/68 67/67/67
f 68/68/68 66/66/66 69/69/69
f 66/66/66 70/70/70 69/69/69
f 71/71/71 68/68/68 69/69/69
f 74/74/74 73/73/73 72/72/72
f 72/72/72 75/75/75 74/74/74
f 75/75/75 72/72/72 76/76/76
f 76/76/76 77/77/77 75/75/75
f 77/77/77 76/76/76 78/78/78
f 79/79/79 77/77/77 78/78/78
f 80/80/80 79/79/79 78/78/78
f 81/81/81 79/79/79 80/80/80
f 82/82/82 81/81/81 80/80/80
f 81/81/81 82/82/82 83/83/83
f 83/83/83 82/82/82 84/84/84
f 85/85/85 84/84/84 82/82/82
f 84/84/84 85/85/85 86/86/86
f 87/87/87 86/86/86 85/85/85
f 86/86/86 87/87/87 88/88/88
f 89/89/89 88/88/88 87/87/87
f 88/88/88 89/89/89 90/90/90
f 91/91/91 90/90/90 89/89/89
f 90/90/90 91/91/91 92/92/92
f 77/77/77 79/79/79 93/93/93
f 93/93/93 79/79/79 94/94/94
f 81/81/81 94/94/94 79/79/79
f 95/95/95 77/77/77 93/93/93
f 75/75/75 77/77/77 95/95/95
f 96/96/96 75/75/75 95/95/95
f 74/74/74 75/75/75 96/96/96
f 97/97/97 74/74/74 96/96/96
f 98/98/98 74/74/74 97/97/97
f 99/99/99 74/74/74 98/98/98
f 100/100/100 99/99/99 98/98/98
f 101/101/101 100/100/100 98/98/98
f 102/102/102 100/100/100 101/101/101
f 103/103/103 102/102/102 101/101/101
f 73/73/73 74/74/74 99/99/99
f 99/99/99 104/104/104 73/73/73
f 104/104/104 99/99/99 100/100/100
f 105/105/105 100/100/100 102/102/102
f 100/100/100 105/105/105 104/104/104
f 105/105/105 102/102/102 106/106/106
f 107/107/107 106/106/106 102/102/102
f 107/107/107 102/102/102 103/103/103
f 108/108/108 106/106/106 107/107/107
f 109/109/109 106/106/106 108/108/108
f 110/110/110 107/107/107 103/103/103
f 108/108/108 107/107/107 110/110/110
f 111/111/111 108/108/108 110/110/110
f 106/106/106 109/109/109 112/112/112
f 109/109/109 113/113/113 112/112/112
f 114/114/114 113/113/113 109/109/109
f 113/113/113 114/114/114 115/115/115
f 113/113/113 116/116/116 112/112/112
f 119/119/119 118/118/118 117/117/117
f 118/118/118 119/119/119 120/120/120
f 92/92/92 120/120/120 119/119/119
f 119/119/119 117/117/117 121/121/121
f 121/121/121 117/117/117 122/122/122
f 117/117/117 123/123/123 122/122/122
f 122/122/122 123/123/123 124/124/124
f 123/123/123 125/125/125 124/124/124
f 126/126/126 119/119/119 121/121/121
f 92/92/92 119/119/119 126/126/126
f 127/127/127 92/92/92 126/126/126
f 124/124/124 125/125/125 128/128/128
f 129/129/129 124/124/124 128/128/128
f 90/90/90 92/92/92 127/127/127
f 130/130/130 90/90/90 127/127/127
f 88/88/88 90/90/90 130/130/130
f 131/131/131 88/88/88 130/130/130
f 86/86/86 88/88/88 131/131/131
f 132/132/132 86/86/86 131/131/131
f 84/84/84 86/86/86 132/132/132
f 133/133/133 84/84/84 132/132/132
f 133/133/133 134/134/134 84/84/84
f 134/134/134 83/83/83 84/84/84
f 81/81/81 83/83/83 134/134/134
f 94/94/94 81/81/81 134/134/134
f 136/136/136 135/135/135 128/128/128
f 136/136/136 128/128/128 125/125/125
f 123/123/123 136/136/136 125/125/125
f 136/136/136 123/123/123 137/137/137
f 117/117/117 137/137/137 123/123/123
f 137/137/137 117/117/117 118/118/118
f 135/135/135 136/136/136 138/138/138
f 138/138/138 139/139/139 135/135/135
f 139/139/139 140/140/140 135/135/135
f 135/135/135 140/140/140 141/141/141
f 142/142/142 135/135/135 141/141/141
f 145/145/145 144/144/144 143/143/143
f 143/143/143 144/144/144 146/146/146
f 147/147/147 146/146/146 144/144/144
f 150/150/150 149/149/149 148/148/148
f 150/150/150 148/148/148 151/151/151
f 148/148/148 152/152/152 151/151/151
f 155/155/155 154/154/154 153/153/153
f 153/153/153 154/154/154 156/156/156
f 154/154/154 157/157/157 156/156/156
f 158/158/158 155/155/155 153/153/153
f 159/159/159 155/155/155 158/158/158
f 160/160/160 159/159/159 158/158/158
f 160/160/160 161/161/161 159/159/159
f 161/161/161 162/162/162 159/159/159
f 163/163/163 162/162/162 161/161/161
f 164/164/164 163/163/163 161/161/161
f 165/165/165 163/163/163 164/164/164
f 166/166/166 165/165/165 164/164/164
f 167/167/167 165/165/165 166/166/166
f 168/168/168 167/167/167 166/166/166
f 168/168/168 169/169/169 167/167/167
f 169/169/169 168/168/168 170/170/170
f 171/171/171 169/169/169 170/170/170
f 172/172/172 171/171/171 170/170/170
f 173/173/173 171/171/171 172/172/172
f 174/174/174 173/173/173 172/172/172
f 175/175/175 173/173/173 174/174/174
f 176/176/176 175/175/175 174/174/174
f 177/177/177 175/175/175 176/176/176
f 178/178/178 177/177/177 176/176/176
f 179/179/179 177/177/177 178/178/178
f 180/180/180 179/179/179 178/178/178
f 181/181/181 179/179/179 180/180/180
f 182/182/182 181/181/181 180/180/180
f 183/183/183 181/181/181 182/182/182
f 181/181/181 183/183/183 184/184/184
f 187/187/187 186/186/186 185/185/185
f 186/186/186 188/188/188 185/185/185
f 191/191/191 190/190/190 189/189/189
f 190/190/190 191/191/191 192/192/192
f 120/120/120 92/92/92 91/91/91
f 195/195/195 194/194/194 193/193/193
