g default
v -1 -1 1
v 1 -1 1
v 1 -1 -1
v -1 -1 -1
v -1 1 0.999999
v -0.999999 1 -1.000001
v 1 1 -1
v 1 1 1
v -1 -1 1
v -1 -1 -1
v -0.999999 1 -1.000001
v -1 1 0.999999
v -1 -1 -1
v 1 -1 -1
v 1 1 -1
v -0.999999 1 -1.000001
v 1 -1 -1
v 1 -1 1
v 1 1 1
v 1 1 -1
v -1 1 0.999999
v 1 1 1
v 1 -1 1
v -1 -1 1
v -39.478 -10 -2.246998
v -59.171 -10 -25.001
v -43.512 -10 0.934002
v -62.398 -10 -22.563
v -52.392 -10 -29.417
v -35.165 -10 -5.040998
v -65.508 -10 -19.975
v -89.264 -9.999996 22
v -74.521 -10 -28.551
v -34.345 -9.999998 9.672002
v -45.224 -10.00001 -33.202
v -30.608 -10 -7.437999
v -37.718 -10.00001 -36.337
v -25.837 -10 -9.423998
v -29.927 -10.00001 -38.804
v -20.888 -10 -10.988
v -21.904 -10.00001 -40.583
v -15.791 -10 -12.117
v -13.7 -10.00001 -41.655
v -10.581 -10 -12.801
v -9.547 -10.00001 -41.92
v -5.291 -10 -13.026
v -5.368 -10.00001 -42
v -1.19 -10.00001 -41.896
v 0 -10 -12.784
v 2.961 -10.00001 -41.607
v 5.207 -10 -12.085
v 11.157 -10.00001 -40.488
v 10.299 -10 -10.939
v 19.168 -10.00001 -38.663
v 15.243 -10 -9.359998
v 26.943 -10.00001 -36.152
v 20.006 -10 -7.357998
v 34.428 -10.00001 -32.973
v 34.428 9.999994 -32.973
v 41.571 -10 -29.147
v 41.571 9.999995 -29.147
v 48.32 -10 -24.693
v 48.32 9.999996 -24.693
v 24.555 -10 -4.947999
v 28.857 -10 -2.139998
v 32.88 -10 1.054002
v 51.53 -10 -22.236
v 54.623 -10 -19.63
v 78.736 -9.999996 22
v 51.53 9.999996 -22.236
v 54.623 9.999997 -19.63
v 63.993 -10 -28.551
v 63.993 9.999995 -28.551
v 23.837 -9.999998 9.658002
v 78.736 10 22
v 28.857 10 -2.140002
v 24.555 9.999999 -4.948001
v 20.006 9.999999 -7.358001
v 26.943 9.999994 -36.152
v 15.243 9.999998 -9.360002
v 19.168 9.999993 -38.663
v 10.299 9.999998 -10.939
v 11.157 9.999993 -40.488
v 5.207 9.999998 -12.085
v 2.961 9.999993 -41.607
v 0 9.999998 -12.784
v -1.19 9.999993 -41.896
v -5.291 9.999998 -13.026
v -5.368 9.999993 -42
v -9.547 9.999993 -41.92
v -10.581 9.999998 -12.801
v -13.7 9.999993 -41.655
v -15.791 9.999998 -12.117
v -21.904 9.999993 -40.583
v -20.888 9.999998 -10.988
v -29.927 9.999993 -38.804
v -25.837 9.999998 -9.424002
v -37.718 9.999994 -36.337
v -30.608 9.999999 -7.438002
v -45.224 9.999994 -33.202
v -35.165 9.999999 -5.041001
v -52.392 9.999995 -29.417
v -39.478 10 -2.247002
v -59.171 9.999996 -25.001
v -43.512 10 0.933998
v -62.398 9.999996 -22.563
v -65.508 9.999997 -19.975
v -89.264 10 22
v -34.345 10 9.671998
v -74.521 9.999995 -28.551
v 23.837 10 9.657998
v 32.88 10 1.053998
vn 0 -1 0
vn 0 -1 0
vn 0 -1 0
vn 0 -1 0
vn 0 1 0
vn 0 1 0
vn 0 1 0
vn 0 1 0
vn -1 0 0
vn -1 0 0
vn -1 0 0
vn -1 0 0
vn 0 0 -1
vn 0 0 -1
vn 0 0 -1
vn 0 0 -1
vn 1 0 0
vn 1 0 0
vn 1 0 0
vn 1 0 0
vn 0 0 1
vn 0 0 1
vn 0 0 1
vn 0 0 1
vn 0.4053114 -0.7177202 0.5662159
vn -0.4107405 -0.6993689 -0.5849577
vn 0.3900118 -0.920628 0.01830056
vn -0.4426236 -0.7018373 -0.5581297
vn -0.3634796 -0.6969608 -0.6181652
vn 0.3519109 -0.7174223 0.6012186
vn 0.01510025 -0.8906149 -0.4545076
vn -0.6063162 -0.5553148 0.5692152
vn -0.2162111 -0.5563285 -0.8023412
vn 0.8032431 -0.5525296 0.2225119
vn -0.3058884 -0.6970736 -0.6484755
vn 0.2963232 -0.7173562 0.6305494
vn -0.2466046 -0.6972129 -0.6731125
vn 0.2390945 -0.7171835 0.654585
vn -0.1859068 -0.6973255 -0.6922253
vn 0.1804982 -0.7171929 0.6730934
vn -0.1241048 -0.6973269 -0.7059272
vn 0.1208018 -0.7171108 0.6864103
vn -0.06909937 -0.6996936 -0.7110935
vn 0.06020274 -0.7171327 0.6943316
vn -0.02950141 -0.7021335 -0.7114339
vn -0.001099974 -0.7171832 0.6968837
vn 0.001999967 -0.7021885 -0.7119883
vn 0.03359964 -0.7020926 -0.7112925
vn -0.06230347 -0.71714 0.6941387
vn 0.073204 -0.6997382 -0.7106388
vn -0.1230026 -0.7171153 0.6860146
vn 0.1282019 -0.6973106 -0.7052107
vn -0.1826998 -0.7170991 0.6725991
vn 0.1898956 -0.6972837 -0.6911838
vn -0.2412149 -0.7172441 0.6537402
vn 0.2504976 -0.6971934 -0.6716936
vn -0.2984063 -0.7173151 0.6296132
vn 0.3097071 -0.697116 -0.6466148
vn 0.3097071 0.697116 -0.6466148
vn 0.3672071 -0.6969134 -0.6160119
vn 0.3672071 0.6969134 -0.6160119
vn 0.4143301 -0.6993508 -0.5824423
vn 0.4143301 0.6993508 -0.5824423
vn -0.3538034 -0.7175069 0.6000058
vn -0.4072195 -0.7177344 0.5648271
vn -0.3907186 -0.9203438 0.01750083
vn 0.446094 -0.7018906 -0.5552925
vn -0.01370006 -0.8914042 -0.4530021
vn 0.6062185 -0.5553169 0.5693173
vn 0.446094 0.7018906 -0.5552925
vn -0.01370006 0.8914042 -0.4530021
vn 0.2160984 -0.5562959 -0.8023942
vn 0.2160984 0.5562959 -0.8023942
vn -0.80335 -0.5525344 0.2221138
vn 0.6062185 0.5553169 0.5693173
vn -0.4072195 0.7177344 0.5648271
vn -0.3538034 0.7175069 0.6000058
vn -0.2984063 0.7173151 0.6296132
vn 0.2504976 0.6971934 -0.6716936
vn -0.2412149 0.7172441 0.6537402
vn 0.1898956 0.6972837 -0.6911838
vn -0.1826998 0.7170991 0.6725991
vn 0.1282019 0.6973106 -0.7052107
vn -0.1230026 0.7171153 0.6860146
vn 0.073204 0.6997382 -0.7106388
vn -0.06230347 0.71714 0.6941387
vn 0.03359964 0.7020926 -0.7112925
vn -0.001099974 0.7171832 0.6968837
vn 0.001999967 0.7021885 -0.7119883
vn -0.02950141 0.7021335 -0.7114339
vn 0.06020274 0.7171327 0.6943316
vn -0.06909937 0.6996936 -0.7110935
vn 0.1208018 0.7171108 0.6864103
vn -0.1241048 0.6973269 -0.7059272
vn 0.1804982 0.7171929 0.6730934
vn -0.1859068 0.6973255 -0.6922253
vn 0.2390945 0.7171835 0.654585
vn -0.2466046 0.6972129 -0.6731125
vn 0.2963232 0.7173562 0.6305494
vn -0.3058884 0.6970736 -0.6484755
vn 0.3519109 0.7174223 0.6012186
vn -0.3634796 0.6969608 -0.6181652
vn 0.4053114 0.7177202 0.5662159
vn -0.4107405 0.6993689 -0.5849577
vn 0.3900118 0.920628 0.01830056
vn -0.4426236 0.7018373 -0.5581297
vn 0.01510025 0.8906149 -0.4545076
vn -0.6063162 0.5553148 0.5692152
vn 0.8032431 0.5525296 0.2225119
vn -0.2162111 0.5563285 -0.8023412
vn -0.80335 0.5525344 0.2221138
vn -0.3907186 0.9203438 0.01750083
g default_0
f 3/3/3 2/2/2 1/1/1
f 4/4/4 3/3/3 1/1/1
f 7/7/7 6/6/6 5/5/5
f 8/8/8 7/7/7 5/5/5
f 11/11/11 10/10/10 9/9/9
f 12/12/12 11/11/11 9/9/9
f 15/15/15 14/14/14 13/13/13
f 16/16/16 15/15/15 13/13/13
f 19/19/19 18/18/18 17/17/17
f 20/20/20 19/19/19 17/17/17
f 23/23/23 22/22/22 21/21/21
f 24/24/24 23/23/23 21/21/21
f 27/27/27 26/26/26 25/25/25
f 26/26/26 27/27/27 28/28/28
f 29/29/29 25/25/25 26/26/26
f 25/25/25 29/29/29 30/30/30
f 27/27/27 31/31/31 28/28/28
f 27/27/27 32/32/32 31/31/31
f 31/31/31 32/32/32 33/33/33
f 32/32/32 27/27/27 34/34/34
f 35/35/35 30/30/30 29/29/29
f 30/30/30 35/35/35 36/36/36
f 37/37/37 36/36/36 35/35/35
f 36/36/36 37/37/37 38/38/38
f 39/39/39 38/38/38 37/37/37
f 38/38/38 39/39/39 40/40/40
f 41/41/41 40/40/40 39/39/39
f 40/40/40 41/41/41 42/42/42
f 43/43/43 42/42/42 41/41/41
f 42/42/42 43/43/43 44/44/44
f 45/45/45 44/44/44 43/43/43
f 44/44/44 45/45/45 46/46/46
f 47/47/47 46/46/46 45/45/45
f 48/48/48 46/46/46 47/47/47
f 46/46/46 48/48/48 49/49/49
f 48/48/48 50/50/50 49/49/49
f 49/49/49 50/50/50 51/51/51
f 50/50/50 52/52/52 51/51/51
f 52/52/52 53/53/53 51/51/51
f 53/53/53 52/52/52 54/54/54
f 54/54/54 55/55/55 53/53/53
f 55/55/55 54/54/54 56/56/56
f 56/56/56 57/57/57 55/55/55
f 57/57/57 56/56/56 58/58/58
f 58/58/58 56/56/56 59/59/59
f 60/60/60 58/58/58 59/59/59
f 61/61/61 60/60/60 59/59/59
f 62/62/62 60/60/60 61/61/61
f 63/63/63 62/62/62 61/61/61
f 58/58/58 64/64/64 57/57/57
f 64/64/64 58/58/58 60/60/60
f 60/60/60 65/65/65 64/64/64
f 65/65/65 60/60/60 62/62/62
f 65/65/65 62/62/62 66/66/66
f 67/67/67 66/66/66 62/62/62
f 67/67/67 62/62/62 63/63/63
f 68/68/68 66/66/66 67/67/67
f 69/69/69 66/66/66 68/68/68
f 70/70/70 67/67/67 63/63/63
f 68/68/68 67/67/67 70/70/70
f 71/71/71 68/68/68 70/70/70
f 69/69/69 68/68/68 72/72/72
f 71/71/71 72/72/72 68/68/68
f 73/73/73 72/72/72 71/71/71
f 66/66/66 69/69/69 74/74/74
f 72/72/72 75/75/75 69/69/69
f 75/75/75 72/72/72 73/73/73
f 69/69/69 75/75/75 74/74/74
f 73/73/73 71/71/71 75/75/75
f 65/65/65 76/76/76 64/64/64
f 66/66/66 76/76/76 65/65/65
f 76/76/76 63/63/63 61/61/61
f 61/61/61 77/77/77 76/76/76
f 76/76/76 77/77/77 64/64/64
f 64/64/64 77/77/77 57/57/57
f 77/77/77 78/78/78 57/57/57
f 77/77/77 59/59/59 78/78/78
f 77/77/77 61/61/61 59/59/59
f 79/79/79 78/78/78 59/59/59
f 78/78/78 79/79/79 80/80/80
f 81/81/81 80/80/80 79/79/79
f 80/80/80 81/81/81 82/82/82
f 83/83/83 82/82/82 81/81/81
f 82/82/82 83/83/83 84/84/84
f 85/85/85 84/84/84 83/83/83
f 84/84/84 85/85/85 86/86/86
f 86/86/86 85/85/85 87/87/87
f 88/88/88 86/86/86 87/87/87
f 89/89/89 88/88/88 87/87/87
f 90/90/90 88/88/88 89/89/89
f 88/88/88 90/90/90 91/91/91
f 92/92/92 91/91/91 90/90/90
f 91/91/91 92/92/92 93/93/93
f 93/93/93 92/92/92 94/94/94
f 93/93/93 94/94/94 95/95/95
f 95/95/95 94/94/94 96/96/96
f 96/96/96 97/97/97 95/95/95
f 97/97/97 96/96/96 98/98/98
f 98/98/98 99/99/99 97/97/97
f 100/100/100 99/99/99 98/98/98
f 99/99/99 100/100/100 101/101/101
f 102/102/102 101/101/101 100/100/100
f 101/101/101 102/102/102 103/103/103
f 104/104/104 103/103/103 102/102/102
f 103/103/103 104/104/104 105/105/105
f 105/105/105 104/104/104 106/106/106
f 107/107/107 105/105/105 106/106/106
f 108/108/108 105/105/105 107/107/107
f 105/105/105 108/108/108 109/109/109
f 108/108/108 107/107/107 110/110/110
f 99/99/99 101/101/101 30/30/30
f 30/30/30 101/101/101 25/25/25
f 101/101/101 103/103/103 25/25/25
f 25/25/25 103/103/103 27/27/27
f 103/103/103 105/105/105 27/27/27
f 105/105/105 109/109/109 27/27/27
f 104/104/104 26/26/26 106/106/106
f 26/26/26 28/28/28 106/106/106
f 102/102/102 29/29/29 104/104/104
f 29/29/29 26/26/26 104/104/104
f 35/35/35 29/29/29 102/102/102
f 100/100/100 35/35/35 102/102/102
f 37/37/37 35/35/35 100/100/100
f 98/98/98 37/37/37 100/100/100
f 109/109/109 34/34/34 27/27/27
f 34/34/34 109/109/109 32/32/32
f 32/32/32 108/108/108 110/110/110
f 109/109/109 108/108/108 32/32/32
f 107/107/107 31/31/31 110/110/110
f 31/31/31 33/33/33 110/110/110
f 33/33/33 32/32/32 110/110/110
f 107/107/107 106/106/106 31/31/31
f 106/106/106 28/28/28 31/31/31
f 39/39/39 37/37/37 98/98/98
f 96/96/96 39/39/39 98/98/98
f 41/41/41 39/39/39 96/96/96
f 94/94/94 41/41/41 96/96/96
f 43/43/43 41/41/41 94/94/94
f 92/92/92 43/43/43 94/94/94
f 45/45/45 43/43/43 92/92/92
f 90/90/90 45/45/45 92/92/92
f 90/90/90 89/89/89 45/45/45
f 89/89/89 47/47/47 45/45/45
f 48/48/48 47/47/47 89/89/89
f 87/87/87 48/48/48 89/89/89
f 48/48/48 87/87/87 50/50/50
f 85/85/85 50/50/50 87/87/87
f 52/52/52 50/50/50 85/85/85
f 83/83/83 52/52/52 85/85/85
f 54/54/54 52/52/52 83/83/83
f 81/81/81 54/54/54 83/83/83
f 56/56/56 54/54/54 81/81/81
f 79/79/79 56/56/56 81/81/81
f 59/59/59 56/56/56 79/79/79
f 112/112/112 111/111/111 75/75/75
f 75/75/75 111/111/111 74/74/74
f 112/112/112 74/74/74 111/111/111
f 71/71/71 112/112/112 75/75/75
f 112/112/112 71/71/71 70/70/70
f 112/112/112 70/70/70 63/63/63
f 63/63/63 76/76/76 112/112/112
f 76/76/76 66/66/66 112/112/112
f 74/74/74 112/112/112 66/66/66
f 57/57/57 78/78/78 55/55/55
f 78/78/78 80/80/80 55/55/55
f 55/55/55 80/80/80 53/53/53
f 80/80/80 82/82/82 53/53/53
f 53/53/53 82/82/82 51/51/51
f 82/82/82 84/84/84 51/51/51
f 51/51/51 84/84/84 49/49/49
f 84/84/84 86/86/86 49/49/49
f 86/86/86 46/46/46 49/49/49
f 46/46/46 86/86/86 88/88/88
f 46/46/46 88/88/88 44/44/44
f 88/88/88 91/91/91 44/44/44
f 44/44/44 91/91/91 42/42/42
f 91/91/91 93/93/93 42/42/42
f 42/42/42 93/93/93 40/40/40
f 93/93/93 95/95/95 40/40/40
f 40/40/40 95/95/95 97/97/97
f 38/38/38 40/40/40 97/97/97
f 38/38/38 97/97/97 36/36/36
f 97/97/97 99/99/99 36/36/36
f 36/36/36 99/99/99 30/30/30
