g group_0_11909273
v 0 3.6 1.2
v -1.03866 1.2012 0.6003
v -0.8479801 1.2012 0.35202
v 0 3.6 1.2
v -0.5997 1.2012 0.16134
v -0.31062 1.2012 0.0414
v 0 3.6 1.2
v 0 1.2012 0.0006
v 0 3.6 1.2
v 0.31062 1.2012 0.0414
v 0 3.6 1.2
v 0.5997 1.2012 0.16134
v 0 3.6 1.2
v 0 3.6 1.2
v -1.1586 1.2012 0.88938
v 0 3.6 1.2
v -1.1994 1.2012 1.2
v 0 3.6 1.2
v -1.1586 1.2012 1.51062
v 0 3.6 1.2
v -1.03866 1.2012 1.7997
v 0 3.6 1.2
v -0.8479801 1.2012 2.04798
v 0 3.6 1.2
v -0.5997 1.2012 2.23866
v 0 3.6 1.2
v -0.31062 1.2012 2.3586
v 0 3.6 1.2
v 0 1.2012 2.3994
v 0.31062 1.2012 2.3586
v 0 3.6 1.2
v 0 3.6 1.2
v 0.5997 1.2012 2.23866
v 0 3.6 1.2
v 0.8479801 1.2012 2.04798
v 0 3.6 1.2
v 1.03866 1.2012 1.7997
v 0 3.6 1.2
v 1.1586 1.2012 1.51062
v 0 3.6 1.2
v 1.1994 1.2012 1.2
v 0 3.6 1.2
v 1.1586 1.2012 0.88938
v 0 3.6 1.2
v 1.03866 1.2012 0.6003
v 0 3.6 1.2
v 0.8479801 1.2012 0.35202
v 0 3.6 1.2
v -1.1994 1.2012 1.2
v 0.8479801 1.2012 2.04798
v -1.1586 1.2012 0.88938
v 0.5997 1.2012 2.23866
v 0.31062 1.2012 2.3586
v 0 1.2012 2.3994
v -0.31062 1.2012 2.3586
v -0.5997 1.2012 2.23866
v -0.8479801 1.2012 2.04798
v -1.03866 1.2012 1.7997
v -1.1586 1.2012 1.51062
v -1.03866 1.2012 0.6003
v -0.8479801 1.2012 0.35202
v 1.03866 1.2012 1.7997
v 1.1586 1.2012 1.51062
v 1.1994 1.2012 1.2
v 1.1586 1.2012 0.88938
v 1.03866 1.2012 0.6003
v 0.8479801 1.2012 0.35202
v -0.5997 1.2012 0.16134
v -0.31062 1.2012 0.0414
v 0 1.2012 0.0006
v 0.5997 1.2012 0.16134
v 0.31062 1.2012 0.0414
vn -0.6711687 0.5332283 -0.5149757
vn -0.7743749 0.4472004 -0.4476106
vn -0.632474 0.4471613 -0.632474
vn -0.5149758 0.5332283 -0.6711687
vn -0.4476106 0.4472004 -0.7743749
vn -0.2316159 0.4472483 -0.8638999
vn -0.3236997 0.5332562 -0.781573
vn 0 0.4472136 -0.8944272
vn -0.1103903 0.5332109 -0.8387492
vn 0.2316159 0.4472483 -0.8638999
vn 0.1103903 0.5332109 -0.8387492
vn 0.4476107 0.4472004 -0.7743748
vn 0.3236997 0.5332562 -0.7815729
vn -0.781573 0.5332562 -0.3236996
vn -0.8638999 0.4472482 -0.2316158
vn -0.8387492 0.5332109 -0.1103903
vn -0.8944272 0.4472136 0
vn -0.8387492 0.5332109 0.1103903
vn -0.8638999 0.4472483 0.2316159
vn -0.781573 0.5332562 0.3236996
vn -0.7743749 0.4472005 0.4476107
vn -0.6711687 0.5332284 0.5149758
vn -0.632474 0.4471613 0.632474
vn -0.5149757 0.5332283 0.6711687
vn -0.4476106 0.4472004 0.7743749
vn -0.3236996 0.5332562 0.781573
vn -0.2316158 0.4472482 0.8638999
vn -0.1103903 0.5332109 0.8387492
vn 0 0.4472136 0.8944272
vn 0.2316159 0.4472482 0.8638999
vn 0.1103903 0.533211 0.8387491
vn 0.3236996 0.5332562 0.7815729
vn 0.4476106 0.4472004 0.7743749
vn 0.5149758 0.5332283 0.6711687
vn 0.6324741 0.4471614 0.632474
vn 0.6711687 0.5332283 0.5149758
vn 0.7743749 0.4472004 0.4476106
vn 0.781573 0.5332562 0.3236997
vn 0.8638999 0.4472483 0.2316159
vn 0.8387492 0.5332109 0.1103903
vn 0.8944272 0.4472136 0
vn 0.8387492 0.5332109 -0.1103902
vn 0.8638999 0.4472482 -0.2316158
vn 0.7815731 0.5332562 -0.3236996
vn 0.7743749 0.4472004 -0.4476106
vn 0.6711687 0.5332283 -0.5149757
vn 0.6324741 0.4471614 -0.632474
vn 0.5149758 0.5332283 -0.6711687
vn 0 -1 0
vn 0 -1 0
vn 0 -1 0
vn 0 -1 0
vn 0 -1 0
vn 0 -1 0
vn 0 -1 0
vn 0 -1 0
vn 0 -1 0
vn 0 -1 0
vn 0 -1 0
vn 0 -1 0
vn 0 -1 0
vn 0 -1 0
vn 0 -1 0
vn 0 -1 0
vn 0 -1 0
vn 0 -1 0
vn 0 -1 0
vn 0 -1 0
vn 0 -1 0
vn 0 -1 0
vn 0 -1 0
vn 0 -1 0
g group_0_11909273_0
f 3/3/3 2/2/2 1/1/1
f 5/5/5 3/3/3 4/4/4
f 5/5/5 7/7/7 6/6/6
f 6/6/6 9/9/9 8/8/8
f 8/8/8 11/11/11 10/10/10
f 10/10/10 13/13/13 12/12/12
f 2/2/2 15/15/15 14/14/14
f 17/17/17 16/16/16 15/15/15
f 19/19/19 18/18/18 17/17/17
f 21/21/21 20/20/20 19/19/19
f 23/23/23 22/22/22 21/21/21
f 23/23/23 25/25/25 24/24/24
f 25/25/25 27/27/27 26/26/26
f 29/29/29 28/28/28 27/27/27
f 31/31/31 29/29/29 30/30/30
f 33/33/33 32/32/32 30/30/30
f 35/35/35 34/34/34 33/33/33
f 35/35/35 37/37/37 36/36/36
f 39/39/39 38/38/38 37/37/37
f 39/39/39 41/41/41 40/40/40
f 41/41/41 43/43/43 42/42/42
f 43/43/43 45/45/45 44/44/44
f 45/45/45 47/47/47 46/46/46
f 12/12/12 48/48/48 47/47/47
f 51/51/51 50/50/50 49/49/49
f 49/49/49 50/50/50 52/52/52
f 49/49/49 52/52/52 53/53/53
f 54/54/54 49/49/49 53/53/53
f 49/49/49 54/54/54 55/55/55
f 55/55/55 56/56/56 49/49/49
f 56/56/56 57/57/57 49/49/49
f 57/57/57 58/58/58 49/49/49
f 58/58/58 59/59/59 49/49/49
f 50/50/50 51/51/51 60/60/60
f 50/50/50 60/60/60 61/61/61
f 50/50/50 61/61/61 62/62/62
f 62/62/62 61/61/61 63/63/63
f 63/63/63 61/61/61 64/64/64
f 61/61/61 65/65/65 64/64/64
f 65/65/65 61/61/61 66/66/66
f 61/61/61 67/67/67 66/66/66
f 67/67/67 61/61/61 68/68/68
f 67/67/67 68/68/68 69/69/69
f 67/67/67 69/69/69 70/70/70
f 70/70/70 71/71/71 67/67/67
f 71/71/71 70/70/70 72/72/72
